#!OML:ASF Y:\EmotionMaleHayes\Project 1\Capture day 1\Session 1\Male1.ASF
:FULLY-SPECIFIED
:DEGREES
564
root 18.3265 16.6144 -13.5058 -30.7005 119.752 -35.2309
lowerback 13.4997 1.77627 -14.2082
upperback 4.68435 0.887716 -3.73548
thorax -2.62742 0.621014 3.84925
lowerneck -21.7757 -4.54628 -1.10745
upperneck 23.2839 -8.65045 10.9528
head 11.8708 -2.3666 2.86214
rclavicle -4.37326e-015 -2.62396e-014
rhumerus -43.8096 17.9978 -93.6801
rradius 46.6045
rwrist -15.587
rhand -26.3958 -39.1714
rfingers 7.12502
rthumb 0.163465 -69.1511
lclavicle -4.37326e-015 -2.62396e-014
lhumerus -20.2521 -23.3192 84.7104
lradius 50.3563
lwrist 14.5854
lhand -29.5779 -25.0029
lfingers 7.12502
lthumb -2.90978 4.95701
rfemur -33.3911 -9.70298 10.993
rtibia 46.4687
rfoot -18.5471 -8.22041
rtoes 21.6231
lfemur 12.0871 -0.614075 -24.4465
ltibia 10.4466
lfoot -18.7935 9.98848
ltoes -34.4738
565
root 18.5126 16.5831 -13.6193 -31.4637 119.638 -36.2274
lowerback 13.1967 1.6194 -14.4266
upperback 4.67721 0.704083 -3.71454
thorax -2.43789 0.515866 4.02538
lowerneck -22.1594 -4.41272 -0.999155
upperneck 23.3513 -8.56843 11.1388
head 11.9754 -2.27799 2.92774
rclavicle -6.4605e-014 -2.14687e-014
rhumerus -45.3511 17.0493 -92.6101
rradius 46.4153
rwrist -14.4234
rhand -26.6918 -39.0524
rfingers 7.12502
rthumb -0.122446 -69.0321
lclavicle -6.4605e-014 -2.14687e-014
lhumerus -17.7852 -25.2305 83.6116
lradius 51.8682
lwrist 14.9634
lhand -29.4691 -25.3775
lfingers 7.12502
lthumb -2.80474 4.58379
rfemur -34.3727 -9.97032 10.5199
rtibia 43.7648
rfoot -18.1701 -8.70795
rtoes 21.7133
lfemur 13.4169 -0.20984 -24.8531
ltibia 9.18775
lfoot -18.7542 9.7814
ltoes -34.0208
566
root 18.6942 16.5378 -13.7298 -32.0103 119.605 -37.045
lowerback 12.9515 1.46686 -14.6191
upperback 4.60519 0.506631 -3.63513
thorax -2.34746 0.408863 4.24871
lowerneck -22.2678 -4.39543 -1.10904
upperneck 22.938 -8.55539 11.4391
head 11.8606 -2.26317 3.04968
rclavicle -4.37326e-014 -2.98177e-014
rhumerus -47.0198 16.3862 -91.4402
rradius 46.5171
rwrist -14.0624
rhand -26.9169 -38.621
rfingers 7.12502
rthumb -0.339809 -68.6005
lclavicle -4.37326e-014 -2.98177e-014
lhumerus -15.2388 -26.9168 82.4104
lradius 53.2603
lwrist 15.0367
lhand -29.2946 -26.0255
lfingers 7.12502
lthumb -2.63621 3.93796
rfemur -35.4292 -10.3522 10.0729
rtibia 41.1623
rfoot -18.1404 -8.92322
rtoes 20.6624
lfemur 14.6379 0.269172 -25.1155
ltibia 7.96643
lfoot -18.4928 9.42347
ltoes -33.4594
567
root 18.8711 16.4844 -13.8435 -32.9888 119.857 -38.4464
lowerback 12.6807 1.27779 -15.211
upperback 4.50944 0.221624 -3.58711
thorax -2.2428 0.259901 4.66713
lowerneck -22.6766 -4.29613 -0.85249
upperneck 22.9201 -8.40855 10.9698
head 11.8811 -2.23303 2.84916
rclavicle -1.35174e-014 -1.11319e-014
rhumerus -48.8202 16.4842 -90.4178
rradius 46.7516
rwrist -14.3354
rhand -27.3857 -38.3291
rfingers 7.12502
rthumb -0.792585 -68.3074
lclavicle -1.35174e-014 -1.11319e-014
lhumerus -12.4657 -28.009 81.1833
lradius 54.2952
lwrist 14.9643
lhand -29.144 -26.5774
lfingers 7.12502
lthumb -2.4908 3.38782
rfemur -36.606 -10.8903 9.13304
rtibia 38.7705
rfoot -17.9704 -8.95572
rtoes 20.992
lfemur 15.703 0.63978 -25.9131
ltibia 6.89528
lfoot -18.2135 9.27944
ltoes -33.7529
568
root 19.0529 16.4233 -13.954 -33.9659 120.198 -39.823
lowerback 12.4209 1.0663 -15.8624
upperback 4.41778 -0.0959925 -3.55025
thorax -2.12489 0.0946684 5.10751
lowerneck -22.7711 -4.15548 -0.934639
upperneck 22.6681 -8.19758 11.091
head 11.7977 -2.14427 2.93764
rclavicle 1.09332e-014 -2.38542e-014
rhumerus -50.7093 16.3402 -89.2722
rradius 47.2506
rwrist -14.1278
rhand -27.3785 -37.9805
rfingers 7.12502
rthumb -0.785673 -67.9588
lclavicle 1.09332e-014 -2.38542e-014
lhumerus -9.71504 -28.9215 79.7908
lradius 55.3509
lwrist 14.8989
lhand -28.987 -26.9689
lfingers 7.12502
lthumb -2.33917 2.99806
rfemur -37.6421 -11.372 8.10651
rtibia 36.3452
rfoot -17.4013 -8.96484
rtoes 21.4899
lfemur 16.753 0.855239 -26.7513
ltibia 5.96148
lfoot -18.0724 9.01471
ltoes -33.026
569
root 19.2401 16.3545 -14.0606 -34.7178 120.473 -40.9248
lowerback 12.165 0.85692 -16.4154
upperback 4.30726 -0.402812 -3.48461
thorax -2.0272 -0.0646571 5.52067
lowerneck -22.5096 -3.98572 -1.06347
upperneck 22.2069 -7.94842 11.445
head 11.5785 -2.03079 3.12469
rclavicle 9.74045e-015 9.54166e-015
rhumerus -52.6442 16.103 -88.032
rradius 47.9862
rwrist -13.9629
rhand -26.4924 -37.5868
rfingers 7.12502
rthumb 0.0701864 -67.5665
lclavicle 9.74045e-015 9.54166e-015
lhumerus -7.03079 -29.6847 78.2189
lradius 56.5126
lwrist 14.7949
lhand -28.8238 -27.0796
lfingers 7.12502
lthumb -2.18158 2.88904
rfemur -38.6165 -11.8021 7.23508
rtibia 33.9716
rfoot -16.7506 -8.98985
rtoes 21.2288
lfemur 17.8359 1.21299 -27.2998
ltibia 5.00923
lfoot -17.7522 8.76021
ltoes -33.88
570
root 19.4307 16.2757 -14.1714 -35.4648 120.786 -42.0435
lowerback 11.785 0.638588 -16.937
upperback 4.24521 -0.680596 -3.42591
thorax -1.8087 -0.220294 5.90152
lowerneck -22.4505 -3.87434 -0.936792
upperneck 21.8962 -7.78404 11.3578
head 11.4266 -1.97917 3.08961
rclavicle -1.98785e-015 -2.38542e-014
rhumerus -54.5418 16.4768 -87.0568
rradius 48.6419
rwrist -14.6361
rhand -25.8493 -37.2245
rfingers 7.12502
rthumb 0.6913 -67.2031
lclavicle -1.98785e-015 -2.38542e-014
lhumerus -4.27851 -30.2255 76.5046
lradius 57.6819
lwrist 14.633
lhand -28.6582 -26.9622
lfingers 7.12502
lthumb -2.02161 3.008
rfemur -39.6327 -12.4417 6.4016
rtibia 31.8312
rfoot -15.7315 -9.05756
rtoes 20.3534
lfemur 18.8804 1.54015 -27.936
ltibia 4.12159
lfoot -17.3981 8.63241
ltoes -36.1326
